<svg
    xmlns="http://www.w3.org/2000/svg"
    width={899}
    height={900}
    className="img-fluid"
    style={{
      transform: "matrix(1.11388,0,0,1.11388,18.6431,18.4838)",
      transformOrigin: "50% 50%",
      cursor: "move",
      maxHeight: "none",
      transition: "none 0s ease 0s",
    }}
    viewBox="0 0 8990 9000"
    {...props}
  >
    <g
      fill="#D60311"
      style={{
        transform: "none",
      }}
    >
      <path d="M7784 2926c-45-20-92-83-110-146-22-81-32-100-50-100-8 0-14-5-12-12 5-15 167-102 175-94 4 3-3 19-15 34s-32 46-44 69c-19 38-20 46-9 83 13 44 57 98 81 101 74 8 88-15 105-180 15-136 28-176 70-209 91-72 235-3 251 119 5 36 14 60 30 74 22 21 23 23 6 37-19 17-105 62-139 72-32 10-29-3 15-59 31-41 37-56 37-97 0-44-4-53-33-79-25-23-42-29-65-27-44 4-55 32-67 174-12 140-21 172-58 208-46 44-112 56-168 32zM7362 2294c-97-108-128-168-67-128 35 23 44 18 205-114 224-183 206-164 191-200-26-62-4-54 60 20 67 79 96 124 86 134-3 3-19-4-35-16-24-18-33-20-51-11-25 14-246 190-310 248-44 39-44 40-32 71 24 57 6 55-47-4z" />
    </g>
    <g
      fill="#36A131"
      style={{
        transform: "none",
      }}
    >
      <path d="M4987 925c-87-18-107-24-107-35 0-5 16-12 35-16 42-7 41-5 85-249 38-214 38-230 3-247-32-16-42-38-16-38 10 0 74 11 141 25 149 29 201 56 231 118 27 55 26 82-1 137-38 74-103 97-219 76l-46-8-11 44c-6 23-14 69-17 100-7 56-7 57 24 72 68 36 21 45-102 21zm222-289c33-18 51-54 51-106 0-55-34-92-85-94l-39-1-12 60c-14 66-18 138-7 148 11 12 63 8 92-7zM4127 906c-92-25-166-107-193-215-27-109 1-216 76-291 56-56 103-75 190-75 64 0 83 4 128 30 126 69 184 228 135 370-24 73-112 158-182 179-64 19-89 19-154 2zm167-64c62-36 89-148 67-278-16-88-50-148-101-174s-96-25-144 3c-63 36-81 82-81 207 0 94 3 110 27 155 31 59 71 102 101 108 35 7 99-3 131-21zM4125 239c-42-40-74-73-73-74 2-1 28-6 59-9l56-7 31 75c18 42 32 78 32 81 0 20-41-6-105-66z" />
    </g>
    <g
      fill="#E78A00"
      style={{
        transform: "none",
      }}
    >
      <path d="M1187 2973c3-26 1-43-8-50-13-10-395-203-403-203-5 0-46 97-46 110 0 6 12 28 26 50 15 22 24 43 21 46-7 7-103-44-119-63-9-11 11-57 88-211 60-120 105-198 115-200 22-4 113 40 108 53-2 6-17 9-33 7-16-1-39 4-50 12-22 14-75 102-66 109 12 9 329 161 364 173 54 19 75 18 96-8 10-13 22-19 27-15 9 10-96 219-114 224-8 3-10-8-6-34zM1560 2350c0-6 5-19 12-30 10-15 9-24-2-46-15-27-140-136-278-241l-73-56-30 22c-20 15-34 20-41 13-16-16 267-358 286-344 114 85 120 97 40 87l-56-7-48 53c-27 29-55 64-62 77-12 23-10 27 27 59 22 19 55 46 73 60 38 30 43 27 98-53 37-54 38-55 21-83-21-35-21-41-3-41 13 0 140 92 151 110 13 20-6 27-46 16l-41-11-49 52c-27 28-49 57-49 64 0 14 65 76 121 115l40 27 30-28c16-16 46-53 66-82l36-52-13-61c-20-95 4-92 60 6l31 55-98 117c-157 189-203 234-203 202z" />
    </g>
    <g
      fill="#33A0D7"
      style={{
        transform: "none",
      }}
    >
      <path d="M6884 1788c-64-48-221-174-253-204-23-21-5-33 33-22 19 6 40 7 49 2 27-15 248-287 270-331 20-41 20-43 2-63-25-28-12-37 22-15 50 32 173 137 173 148 0 5-10 6-22 2-72-22-71-23-158 77-90 103-200 244-200 258 0 16 110 102 146 115 30 10 47 10 91-2 59-15 73-12 54 11-19 22-106 76-123 76-8 0-46-23-84-52zM6097 1270c-102-26-175-101-202-208-15-56-15-68-1-122 42-162 127-240 273-248 64-4 80-1 136 26 75 35 119 88 141 174 46 176-82 364-259 382-27 3-67 1-88-4zm115-75c102-67 177-275 133-369-39-83-133-106-213-54-53 36-107 116-132 197-38 122-19 199 60 239 53 27 96 23 152-13z" />
    </g>
    <g
      fill="#E2D200"
      style={{
        transform: "none",
      }}
    >
      <path d="M2178 1633c-25-6-22-30 5-37 52-14 127-3 127 19 0 21-79 32-132 18zM2327 1592c-24-27-21-35 25-57 59-29 96-79 109-150 7-33 16-64 20-70 17-18 32 14 31 66-1 72-40 147-99 193-53 41-63 43-86 18zM1965 1310c-3-11-11-20-16-20-33 0 36-147 87-186 18-14 60-37 91-49 36-15 59-31 62-42 4-21 20-43 31-43 14 0 120 142 120 161 0 23 4 24-57-6-28-13-63-27-77-31-38-9-112 31-148 80-26 36-29 48-26 99l3 57h-32c-23 0-33-6-38-20zM3030 1175c0-14 5-25 10-25 6 0 10-7 10-16s5-12 12-8 27 7 45 6c59-4 31 26-52 58-23 9-25 7-25-15z" />
    </g>
    <g
      fill="#F1E100"
      style={{
        transform: "none",
      }}
    >
      <path d="M2180 1630c-51-9-92-33-145-87-86-86-115-194-84-308l11-40 20 53c11 28 25 52 31 52 7 0 24 27 39 59 33 70 110 159 155 177 18 8 56 14 86 14 43 0 58 4 76 24l22 24-43 16c-52 19-77 22-102 11-10-4-21-4-25 2-3 5-22 6-41 3zM2936 1223c-3-4 8-21 25-39l31-32-57-159c-61-165-97-247-116-259-6-3-31-6-55-6-59 2-58-20 4-46 102-44 69-55 392 131 63 37 121 67 127 67 20 0-84-275-110-292-7-4-24-8-39-8-72 0-24-35 106-76 64-20 83-12 44 20-16 12-28 32-28 44 0 17 102 308 165 475 5 12 2 17-11 17-20-1-74-28-305-158-80-45-151-82-157-82-12 0 37 151 82 253 26 57 31 61 75 57 15-1 22 3 19 12-3 7-15 12-26 10-15-2-20 1-17 10 4 9-17 22-65 41-78 30-74 29-84 20z" />
    </g>
    <g
      fill="#F3F3F4"
      style={{
        transform: "none",
      }}
    >
      <path d="M1774 7497c-65-57 0-162 81-131 19 8 45 55 45 84s-44 70-74 70c-14 0-37-11-52-23zM7285 7345c-49-48-16-125 54-125 47 0 71 24 71 72 0 70-76 102-125 53zM1538 7260c-25-26-29-36-24-63 13-68 78-87 127-38 37 37 38 74 3 106-36 33-69 32-106-5zM7508 7100c-35-36-33-71 8-107 33-30 69-29 99 2 27 26 31 54 13 88-29 55-76 61-120 17zM1337 7029c-24-14-49-67-42-89 9-27 53-60 81-60 37 0 77 41 77 80 0 58-67 98-116 69zM7735 6858c-51-27-60-84-20-123 28-29 70-32 103-9 32 22 31 86-3 119-26 27-49 31-80 13zM1138 6760c-27-17-42-74-26-107 36-75 148-39 148 48 0 49-76 85-122 59zM7891 6564c-12-15-21-37-21-50 0-34 47-84 78-84 32 0 43 7 65 40 24 35 21 57-12 91-38 38-82 39-110 3zM981 6476c-51-28-65-90-28-124 32-30 81-29 112 3 33 33 32 70-4 106-33 32-45 35-80 15zM8049 6272c-27-24-30-33-25-59 15-68 77-93 130-52 34 27 34 68 0 108-32 39-64 40-105 3zM815 6165c-29-28-34-85-10-109 51-51 135-11 135 65 0 28-44 69-75 69-14 0-37-11-50-25zM8185 5975c-35-34-33-78 5-117 25-24 36-29 58-24 37 9 62 42 62 80-1 35-15 57-47 74-32 18-51 15-78-13zM690 5855c-32-34-30-83 5-112 35-31 61-29 96 6 34 35 37 68 8 105-27 35-77 36-109 1zM8286 5658c-30-48-20-100 24-123 40-21 57-19 85 10 52 51 17 135-55 135-30 0-43-5-54-22zM599 5541c-38-38-38-74 0-112 31-31 51-35 82-19 21 12 49 60 49 85 0 24-55 75-80 75-12 0-35-13-51-29zM8361 5334c-29-36-26-66 8-103 38-41 71-40 106 1 21 25 25 38 21 62-13 66-96 90-135 40zM528 5210c-25-26-29-36-24-63 12-64 73-86 122-43 55 46 26 136-43 136-14 0-38-13-55-30zM8440 5027c-14-7-28-26-34-45-25-88 88-152 129-72 22 43 19 68-14 101-33 32-44 35-81 16zM484 4889c-28-31-25-96 5-120s62-24 94 1c33 26 41 63 23 99-24 46-88 57-122 20zM8455 4686c-34-34-41-70-21-102 33-50 96-51 130-2 24 34 19 66-13 99-36 35-64 37-96 5zM475 4555c-30-29-32-64-5-98s53-41 88-23c51 26 59 91 16 125-35 28-69 26-99-4zM8464 4362c-67-54-43-142 39-142 34 0 77 40 77 73 0 27-54 87-79 87-9 0-26-8-37-18z" />
    </g>
  </svg>