<?xml version="1.0" encoding="utf-8"?>
<!DOCTYPE svg PUBLIC "-//W3C//DTD SVG 1.0//EN" "http://www.w3.org/TR/2001/REC-SVG-20010904/DTD/svg10.dtd">
<svg version="1.0" xmlns="http://www.w3.org/2000/svg" width="899px" height="900px" viewBox="0 0 899 900" preserveAspectRatio="xMidYMid meet">
 <g fill="#d50411">
  <path d="M778.4 292.6 c-4.5 -2 -9.2 -8.3 -11 -14.6 -2.2 -8.1 -3.2 -10 -5 -10 -0.8 0 -1.4 -0.5 -1.2 -1.2 0.5 -1.5 16.7 -10.2 17.5 -9.4 0.4 0.3 -0.3 1.9 -1.5 3.4 -1.2 1.5 -3.2 4.6 -4.4 6.9 -1.9 3.8 -2 4.6 -0.9 8.3 1.3 4.4 5.7 9.8 8.1 10.1 7.4 0.8 8.8 -1.5 10.5 -18 1.5 -13.6 2.8 -17.6 7 -20.9 9.1 -7.2 23.5 -0.3 25.1 11.9 0.5 3.6 1.4 6 3 7.4 2.2 2.1 2.3 2.3 0.6 3.7 -1.9 1.7 -10.5 6.2 -13.9 7.2 -3.2 1 -2.9 -0.3 1.5 -5.9 3.1 -4.1 3.7 -5.6 3.7 -9.7 0 -4.4 -0.4 -5.3 -3.3 -7.9 -2.5 -2.3 -4.2 -2.9 -6.5 -2.7 -4.4 0.4 -5.5 3.2 -6.7 17.4 -1.2 14 -2.1 17.2 -5.8 20.8 -4.6 4.4 -11.2 5.6 -16.8 3.2z"/>
  <path d="M736.2 229.4 c-9.7 -10.8 -12.8 -16.8 -6.7 -12.8 3.5 2.3 4.4 1.8 20.5 -11.4 22.4 -18.3 20.6 -16.4 19.1 -20 -2.6 -6.2 -0.4 -5.4 6 2 6.7 7.9 9.6 12.4 8.6 13.4 -0.3 0.3 -1.9 -0.4 -3.5 -1.6 -2.4 -1.8 -3.3 -2 -5.1 -1.1 -2.5 1.4 -24.6 19 -31 24.8 -4.4 3.9 -4.4 4 -3.2 7.1 2.4 5.7 0.6 5.5 -4.7 -0.4z"/>
 </g>
 <g fill="#36a131">
  <path d="M498.7 92.5 c-8.7 -1.8 -10.7 -2.4 -10.7 -3.5 0 -0.5 1.6 -1.2 3.5 -1.6 4.2 -0.7 4.1 -0.5 8.5 -24.9 3.8 -21.4 3.8 -23 0.3 -24.7 -3.2 -1.6 -4.2 -3.8 -1.6 -3.8 1 0 7.4 1.1 14.1 2.5 14.9 2.9 20.1 5.6 23.1 11.8 2.7 5.5 2.6 8.2 -0.1 13.7 -3.8 7.4 -10.3 9.7 -21.9 7.6 l-4.6 -0.8 -1.1 4.4 c-0.6 2.3 -1.4 6.9 -1.7 10 -0.7 5.6 -0.7 5.7 2.4 7.2 6.8 3.6 2.1 4.5 -10.2 2.1z m22.2 -28.9 c3.3 -1.8 5.1 -5.4 5.1 -10.6 0 -5.5 -3.4 -9.2 -8.5 -9.4 l-3.9 -0.1 -1.2 6 c-1.4 6.6 -1.8 13.8 -0.7 14.8 1.1 1.2 6.3 0.8 9.2 -0.7z"/>
  <path d="M412.7 90.6 c-9.2 -2.5 -16.6 -10.7 -19.3 -21.5 -2.7 -10.9 0.1 -21.6 7.6 -29.1 5.6 -5.6 10.3 -7.5 19 -7.5 6.4 0 8.3 0.4 12.8 3 12.6 6.9 18.4 22.8 13.5 37 -2.4 7.3 -11.2 15.8 -18.2 17.9 -6.4 1.9 -8.9 1.9 -15.4 0.2z m16.7 -6.4 c6.2 -3.6 8.9 -14.8 6.7 -27.8 -1.6 -8.8 -5 -14.8 -10.1 -17.4 -5.1 -2.6 -9.6 -2.5 -14.4 0.3 -6.3 3.6 -8.1 8.2 -8.1 20.7 0 9.4 0.3 11 2.7 15.5 3.1 5.9 7.1 10.2 10.1 10.8 3.5 0.7 9.9 -0.3 13.1 -2.1z"/>
  <path d="M412.5 23.9 c-4.2 -4 -7.4 -7.3 -7.3 -7.4 0.2 -0.1 2.8 -0.6 5.9 -0.9 l5.6 -0.7 3.1 7.5 c1.8 4.2 3.2 7.8 3.2 8.1 0 2 -4.1 -0.6 -10.5 -6.6z"/>
 </g>
 <g fill="#e78a00">
  <path d="M118.7 297.3 c0.3 -2.6 0.1 -4.3 -0.8 -5 -1.3 -1 -39.5 -20.3 -40.3 -20.3 -0.5 0 -4.6 9.7 -4.6 11 0 0.6 1.2 2.8 2.6 5 1.5 2.2 2.4 4.3 2.1 4.6 -0.7 0.7 -10.3 -4.4 -11.9 -6.3 -0.9 -1.1 1.1 -5.7 8.8 -21.1 6 -12 10.5 -19.8 11.5 -20 2.2 -0.4 11.3 4 10.8 5.3 -0.2 0.6 -1.7 0.9 -3.3 0.7 -1.6 -0.1 -3.9 0.4 -5 1.2 -2.2 1.4 -7.5 10.2 -6.6 10.9 1.2 0.9 32.9 16.1 36.4 17.3 5.4 1.9 7.5 1.8 9.6 -0.8 1 -1.3 2.2 -1.9 2.7 -1.5 0.9 1 -9.6 21.9 -11.4 22.4 -0.8 0.3 -1 -0.8 -0.6 -3.4z"/>
  <path d="M156 235 c0 -0.6 0.5 -1.9 1.2 -3 1 -1.5 0.9 -2.4 -0.2 -4.6 -1.5 -2.7 -14 -13.6 -27.8 -24.1 l-7.3 -5.6 -3 2.2 c-2 1.5 -3.4 2 -4.1 1.3 -1.6 -1.6 26.7 -35.8 28.6 -34.4 11.4 8.5 12 9.7 4 8.7 l-5.6 -0.7 -4.8 5.3 c-2.7 2.9 -5.5 6.4 -6.2 7.7 -1.2 2.3 -1 2.7 2.7 5.9 2.2 1.9 5.5 4.6 7.3 6 3.8 3 4.3 2.7 9.8 -5.3 3.7 -5.4 3.8 -5.5 2.1 -8.3 -2.1 -3.5 -2.1 -4.1 -0.3 -4.1 1.3 0 14 9.2 15.1 11 1.3 2 -0.6 2.7 -4.6 1.6 l-4.1 -1.1 -4.9 5.2 c-2.7 2.8 -4.9 5.7 -4.9 6.4 0 1.4 6.5 7.6 12.1 11.5 l4 2.7 3 -2.8 c1.6 -1.6 4.6 -5.3 6.6 -8.2 l3.6 -5.2 -1.3 -6.1 c-2 -9.5 0.4 -9.2 6 0.6 l3.1 5.5 -9.8 11.7 c-15.7 18.9 -20.3 23.4 -20.3 20.2z"/>
 </g>
 <g fill="#33a0d7">
  <path d="M688.4 178.8 c-6.4 -4.8 -22.1 -17.4 -25.3 -20.4 -2.3 -2.1 -0.5 -3.3 3.3 -2.2 1.9 0.6 4 0.7 4.9 0.2 2.7 -1.5 24.8 -28.7 27 -33.1 2 -4.1 2 -4.3 0.2 -6.3 -2.5 -2.8 -1.2 -3.7 2.2 -1.5 5 3.2 17.3 13.7 17.3 14.8 0 0.5 -1 0.6 -2.2 0.2 -7.2 -2.2 -7.1 -2.3 -15.8 7.7 -9 10.3 -20 24.4 -20 25.8 0 1.6 11 10.2 14.6 11.5 3 1 4.7 1 9.1 -0.2 5.9 -1.5 7.3 -1.2 5.4 1.1 -1.9 2.2 -10.6 7.6 -12.3 7.6 -0.8 0 -4.6 -2.3 -8.4 -5.2z"/>
  <path d="M609.7 127 c-10.2 -2.6 -17.5 -10.1 -20.2 -20.8 -1.5 -5.6 -1.5 -6.8 -0.1 -12.2 4.2 -16.2 12.7 -24 27.3 -24.8 6.4 -0.4 8 -0.1 13.6 2.6 7.5 3.5 11.9 8.8 14.1 17.4 4.6 17.6 -8.2 36.4 -25.9 38.2 -2.7 0.3 -6.7 0.1 -8.8 -0.4z m11.5 -7.5 c10.2 -6.7 17.7 -27.5 13.3 -36.9 -3.9 -8.3 -13.3 -10.6 -21.3 -5.4 -5.3 3.6 -10.7 11.6 -13.2 19.7 -3.8 12.2 -1.9 19.9 6 23.9 5.3 2.7 9.6 2.3 15.2 -1.3z"/>
 </g>
 <g fill="#e2d200">
  <path d="M217.8 163.3 c-2.5 -0.6 -2.2 -3 0.5 -3.7 5.2 -1.4 12.7 -0.3 12.7 1.9 0 2.1 -7.9 3.2 -13.2 1.8z"/>
  <path d="M232.7 159.2 c-2.4 -2.7 -2.1 -3.5 2.5 -5.7 5.9 -2.9 9.6 -7.9 10.9 -15 0.7 -3.3 1.6 -6.4 2 -7 1.7 -1.8 3.2 1.4 3.1 6.6 -0.1 7.2 -4 14.7 -9.9 19.3 -5.3 4.1 -6.3 4.3 -8.6 1.8z"/>
  <path d="M196.5 131 c-0.3 -1.1 -1.1 -2 -1.6 -2 -3.3 0 3.6 -14.7 8.7 -18.6 1.8 -1.4 6 -3.7 9.1 -4.9 3.6 -1.5 5.9 -3.1 6.2 -4.2 0.4 -2.1 2 -4.3 3.1 -4.3 1.4 0 12 14.2 12 16.1 0 2.3 0.4 2.4 -5.7 -0.6 -2.8 -1.3 -6.3 -2.7 -7.7 -3.1 -3.8 -0.9 -11.2 3.1 -14.8 8 -2.6 3.6 -2.9 4.8 -2.6 9.9 l0.3 5.7 -3.2 0 c-2.3 0 -3.3 -0.6 -3.8 -2z"/>
  <path d="M303 117.5 c0 -1.4 0.5 -2.5 1 -2.5 0.6 0 1 -0.7 1 -1.6 0 -0.9 0.5 -1.2 1.2 -0.8 0.7 0.4 2.7 0.7 4.5 0.6 5.9 -0.4 3.1 2.6 -5.2 5.8 -2.3 0.9 -2.5 0.7 -2.5 -1.5z"/>
 </g>
 <g fill="#f1e100">
  <path d="M218 163 c-5.1 -0.9 -9.2 -3.3 -14.5 -8.7 -8.6 -8.6 -11.5 -19.4 -8.4 -30.8 l1.1 -4 2 5.3 c1.1 2.8 2.5 5.2 3.1 5.2 0.7 0 2.4 2.7 3.9 5.9 3.3 7 11 15.9 15.5 17.7 1.8 0.8 5.6 1.4 8.6 1.4 4.3 0 5.8 0.4 7.6 2.4 l2.2 2.4 -4.3 1.6 c-5.2 1.9 -7.7 2.2 -10.2 1.1 -1 -0.4 -2.1 -0.4 -2.5 0.2 -0.3 0.5 -2.2 0.6 -4.1 0.3z"/>
  <path d="M293.6 122.3 c-0.3 -0.4 0.8 -2.1 2.5 -3.9 l3.1 -3.2 -5.7 -15.9 c-6.1 -16.5 -9.7 -24.7 -11.6 -25.9 -0.6 -0.3 -3.1 -0.6 -5.5 -0.6 -5.9 0.2 -5.8 -2 0.4 -4.6 10.2 -4.4 6.9 -5.5 39.2 13.1 6.3 3.7 12.1 6.7 12.7 6.7 2 0 -8.4 -27.5 -11 -29.2 -0.7 -0.4 -2.4 -0.8 -3.9 -0.8 -7.2 0 -2.4 -3.5 10.6 -7.6 6.4 -2 8.3 -1.2 4.4 2 -1.6 1.2 -2.8 3.2 -2.8 4.4 0 1.7 10.2 30.8 16.5 47.5 0.5 1.2 0.2 1.7 -1.1 1.7 -2 -0.1 -7.4 -2.8 -30.5 -15.8 -8 -4.5 -15.1 -8.2 -15.7 -8.2 -1.2 0 3.7 15.1 8.2 25.3 2.6 5.7 3.1 6.1 7.5 5.7 1.5 -0.1 2.2 0.3 1.9 1.2 -0.3 0.7 -1.5 1.2 -2.6 1 -1.5 -0.2 -2 0.1 -1.7 1 0.4 0.9 -1.7 2.2 -6.5 4.1 -7.8 3 -7.4 2.9 -8.4 2z"/>
 </g>
 <g fill="#f3f3f4">
  <path d="M177.4 749.7 c-6.5 -5.7 0 -16.2 8.1 -13.1 1.9 0.8 4.5 5.5 4.5 8.4 0 2.9 -4.4 7 -7.4 7 -1.4 0 -3.7 -1.1 -5.2 -2.3z"/>
  <path d="M728.5 734.5 c-4.9 -4.8 -1.6 -12.5 5.4 -12.5 4.7 0 7.1 2.4 7.1 7.2 0 7 -7.6 10.2 -12.5 5.3z"/>
  <path d="M153.8 726 c-2.5 -2.6 -2.9 -3.6 -2.4 -6.3 1.3 -6.8 7.8 -8.7 12.7 -3.8 3.7 3.7 3.8 7.4 0.3 10.6 -3.6 3.3 -6.9 3.2 -10.6 -0.5z"/>
  <path d="M750.8 710 c-3.5 -3.6 -3.3 -7.1 0.8 -10.7 3.3 -3 6.9 -2.9 9.9 0.2 2.7 2.6 3.1 5.4 1.3 8.8 -2.9 5.5 -7.6 6.1 -12 1.7z"/>
  <path d="M133.7 702.9 c-2.4 -1.4 -4.9 -6.7 -4.2 -8.9 0.9 -2.7 5.3 -6 8.1 -6 3.7 0 7.7 4.1 7.7 8 0 5.8 -6.7 9.8 -11.6 6.9z"/>
  <path d="M773.5 685.8 c-5.1 -2.7 -6 -8.4 -2 -12.3 2.8 -2.9 7 -3.2 10.3 -0.9 3.2 2.2 3.1 8.6 -0.3 11.9 -2.6 2.7 -4.9 3.1 -8 1.3z"/>
  <path d="M113.8 676 c-2.7 -1.7 -4.2 -7.4 -2.6 -10.7 3.6 -7.5 14.8 -3.9 14.8 4.8 0 4.9 -7.6 8.5 -12.2 5.9z"/>
  <path d="M789.1 656.4 c-1.2 -1.5 -2.1 -3.7 -2.1 -5 0 -3.4 4.7 -8.4 7.8 -8.4 3.2 0 4.3 0.7 6.5 4 2.4 3.5 2.1 5.7 -1.2 9.1 -3.8 3.8 -8.2 3.9 -11 0.3z"/>
  <path d="M98.1 647.6 c-5.1 -2.8 -6.5 -9 -2.8 -12.4 3.2 -3 8.1 -2.9 11.2 0.3 3.3 3.3 3.2 7 -0.4 10.6 -3.3 3.2 -4.5 3.5 -8 1.5z"/>
  <path d="M804.9 627.2 c-2.7 -2.4 -3 -3.3 -2.5 -5.9 1.5 -6.8 7.7 -9.3 13 -5.2 3.4 2.7 3.4 6.8 0 10.8 -3.2 3.9 -6.4 4 -10.5 0.3z"/>
  <path d="M81.5 616.5 c-2.9 -2.8 -3.4 -8.5 -1 -10.9 5.1 -5.1 13.5 -1.1 13.5 6.5 0 2.8 -4.4 6.9 -7.5 6.9 -1.4 0 -3.7 -1.1 -5 -2.5z"/>
  <path d="M818.5 597.5 c-3.5 -3.4 -3.3 -7.8 0.5 -11.7 2.5 -2.4 3.6 -2.9 5.8 -2.4 3.7 0.9 6.2 4.2 6.2 8 -0.1 3.5 -1.5 5.7 -4.7 7.4 -3.2 1.8 -5.1 1.5 -7.8 -1.3z"/>
  <path d="M69 585.5 c-3.2 -3.4 -3 -8.3 0.5 -11.2 3.5 -3.1 6.1 -2.9 9.6 0.6 3.4 3.5 3.7 6.8 0.8 10.5 -2.7 3.5 -7.7 3.6 -10.9 0.1z"/>
  <path d="M828.6 565.8 c-3 -4.8 -2 -10 2.4 -12.3 4 -2.1 5.7 -1.9 8.5 1 5.2 5.1 1.7 13.5 -5.5 13.5 -3 0 -4.3 -0.5 -5.4 -2.2z"/>
  <path d="M59.9 554.1 c-3.8 -3.8 -3.8 -7.4 0 -11.2 3.1 -3.1 5.1 -3.5 8.2 -1.9 2.1 1.2 4.9 6 4.9 8.5 0 2.4 -5.5 7.5 -8 7.5 -1.2 0 -3.5 -1.3 -5.1 -2.9z"/>
  <path d="M836.1 533.4 c-2.9 -3.6 -2.6 -6.6 0.8 -10.3 3.8 -4.1 7.1 -4 10.6 0.1 2.1 2.5 2.5 3.8 2.1 6.2 -1.3 6.6 -9.6 9 -13.5 4z"/>
  <path d="M52.8 521 c-2.5 -2.6 -2.9 -3.6 -2.4 -6.3 1.2 -6.4 7.3 -8.6 12.2 -4.3 5.5 4.6 2.6 13.6 -4.3 13.6 -1.4 0 -3.8 -1.3 -5.5 -3z"/>
  <path d="M844 502.7 c-1.4 -0.7 -2.8 -2.6 -3.4 -4.5 -2.5 -8.8 8.8 -15.2 12.9 -7.2 2.2 4.3 1.9 6.8 -1.4 10.1 -3.3 3.2 -4.4 3.5 -8.1 1.6z"/>
  <path d="M48.4 488.9 c-2.8 -3.1 -2.5 -9.6 0.5 -12 3 -2.4 6.2 -2.4 9.4 0.1 3.3 2.6 4.1 6.3 2.3 9.9 -2.4 4.6 -8.8 5.7 -12.2 2z"/>
  <path d="M845.5 468.6 c-3.4 -3.4 -4.1 -7 -2.1 -10.2 3.3 -5 9.6 -5.1 13 -0.2 2.4 3.4 1.9 6.6 -1.3 9.9 -3.6 3.5 -6.4 3.7 -9.6 0.5z"/>
  <path d="M47.5 455.5 c-3 -2.9 -3.2 -6.4 -0.5 -9.8 2.7 -3.4 5.3 -4.1 8.8 -2.3 5.1 2.6 5.9 9.1 1.6 12.5 -3.5 2.8 -6.9 2.6 -9.9 -0.4z"/>
  <path d="M846.4 436.2 c-6.7 -5.4 -4.3 -14.2 3.9 -14.2 3.4 0 7.7 4 7.7 7.3 0 2.7 -5.4 8.7 -7.9 8.7 -0.9 0 -2.6 -0.8 -3.7 -1.8z"/>
 </g>
</svg>